<svg viewBox="0 0 57 51" xmlns="http://www.w3.org/2000/svg">
<path fill-rule="evenodd" clip-rule="evenodd" d="M21.1519 1.90611C24.2104 0.638766 27.49 -0.00908357 30.8008 9.62051e-05C34.1115 -0.00908357 37.3911 0.638766 40.4497 1.90611C43.5082 3.17346 46.2849 5.03512 48.6188 7.38323C53.3785 12.1401 56.002 18.4677 56.002 25.2013C56.002 31.9349 53.3785 38.2625 48.6188 43.0194C43.8619 47.7791 37.5343 50.4025 30.8008 50.4025C24.0672 50.4025 17.7396 47.7791 12.9827 43.0194L16.9416 39.0604C20.643 42.7618 25.5651 44.8029 30.8008 44.8029C36.0364 44.8029 40.9585 42.7618 44.6599 39.0604C48.3612 35.3591 50.4023 30.437 50.4023 25.2013C50.4023 19.9656 48.3612 15.0435 44.6599 11.3422C40.9585 7.64081 36.0364 5.59974 30.8008 5.59974C25.5651 5.59974 20.643 7.64081 16.9416 11.3422L12.9827 7.38323C15.3166 5.03512 18.0933 3.17346 21.1519 1.90611ZM13.9991 36.4006L0 25.2013L13.9991 14.002V22.4015H39.1975V28.0011H13.9991V36.4006Z"/>
</svg>
