<svg width="215" height="39" viewBox="0 0 215 39" fill="none" xmlns="http://www.w3.org/2000/svg">
<path d="M64.3258 16.0064C64.3258 17.6858 63.7295 19.0854 62.5369 20.205C61.3642 21.3054 59.5654 21.8555 57.1404 21.8555H53.1453V30.2818H50.4321V10.0993H57.1404C59.4859 10.0993 61.2648 10.6495 62.4773 11.7498C63.7096 12.8501 64.3258 14.269 64.3258 16.0064ZM57.1404 19.6838C58.6511 19.6838 59.7641 19.3653 60.4797 18.7282C61.1953 18.0912 61.553 17.1839 61.553 16.0064C61.553 13.5161 60.0822 12.271 57.1404 12.271H53.1453V19.6838H57.1404Z" fill="#225F49"/>
<path d="M66.6842 22.2899C66.6842 20.6683 67.0221 19.2495 67.6979 18.0333C68.3737 16.7978 69.298 15.8423 70.4707 15.1666C71.6633 14.491 72.985 14.1532 74.436 14.1532C75.8671 14.1532 77.1094 14.4524 78.1629 15.0508C79.2163 15.6492 80.0014 16.4021 80.5182 17.3094V14.4138H83.2612V30.2818H80.5182V27.3282C79.9816 28.2548 79.1766 29.027 78.1032 29.6447C77.0498 30.2432 75.8174 30.5424 74.4062 30.5424C72.9552 30.5424 71.6434 30.1949 70.4707 29.5C69.298 28.805 68.3737 27.8302 67.6979 26.5754C67.0221 25.3206 66.6842 23.8921 66.6842 22.2899ZM80.5182 22.3188C80.5182 21.122 80.2698 20.0795 79.7729 19.1915C79.276 18.3036 78.6002 17.6279 77.7455 17.1646C76.9107 16.682 75.9864 16.4407 74.9727 16.4407C73.959 16.4407 73.0347 16.6724 72.1999 17.1357C71.3651 17.599 70.6992 18.2746 70.2023 19.1626C69.7054 20.0506 69.457 21.093 69.457 22.2899C69.457 23.506 69.7054 24.5678 70.2023 25.475C70.6992 26.363 71.3651 27.0483 72.1999 27.5309C73.0347 27.9942 73.959 28.2259 74.9727 28.2259C75.9864 28.2259 76.9107 27.9942 77.7455 27.5309C78.6002 27.0483 79.276 26.363 79.7729 25.475C80.2698 24.5678 80.5182 23.5157 80.5182 22.3188Z" fill="#225F49"/>
<path d="M89.2474 11.8367C88.7306 11.8367 88.2934 11.6629 87.9356 11.3155C87.5778 10.968 87.3989 10.5433 87.3989 10.0414C87.3989 9.53947 87.5778 9.11478 87.9356 8.76731C88.2934 8.41983 88.7306 8.24609 89.2474 8.24609C89.7443 8.24609 90.1618 8.41983 90.4997 8.76731C90.8574 9.11478 91.0363 9.53947 91.0363 10.0414C91.0363 10.5433 90.8574 10.968 90.4997 11.3155C90.1618 11.6629 89.7443 11.8367 89.2474 11.8367ZM90.5593 14.4138V30.2818H87.8461V14.4138H90.5593Z" fill="#225F49"/>
<path d="M103.144 14.1242C105.132 14.1242 106.742 14.713 107.974 15.8905C109.206 17.0488 109.822 18.7282 109.822 20.9289V30.2818H107.139V21.3054C107.139 19.7224 106.732 18.5159 105.917 17.6858C105.102 16.8364 103.989 16.4117 102.577 16.4117C101.146 16.4117 100.003 16.8461 99.1487 17.7148C98.3139 18.5835 97.8965 19.8479 97.8965 21.508V30.2818H95.1834V14.4138H97.8965V16.6724C98.4332 15.8616 99.1587 15.2342 100.073 14.7902C101.007 14.3462 102.031 14.1242 103.144 14.1242Z" fill="#225F49"/>
<path d="M129.162 21.7397C129.162 22.2416 129.132 22.7725 129.072 23.3323H116.013C116.113 24.8959 116.659 26.1217 117.653 27.0097C118.667 27.8784 119.889 28.3128 121.32 28.3128C122.493 28.3128 123.467 28.0522 124.242 27.5309C125.037 26.9904 125.594 26.2762 125.912 25.3882H128.834C128.396 26.9132 127.522 28.1583 126.21 29.1235C124.898 30.0694 123.268 30.5424 121.32 30.5424C119.77 30.5424 118.379 30.2046 117.146 29.5289C115.934 28.8533 114.98 27.8977 114.284 26.6623C113.588 25.4075 113.241 23.9597 113.241 22.3188C113.241 20.678 113.579 19.2398 114.254 18.0043C114.93 16.7689 115.874 15.823 117.087 15.1666C118.319 14.491 119.73 14.1532 121.32 14.1532C122.871 14.1532 124.242 14.4813 125.435 15.1377C126.627 15.794 127.542 16.7013 128.178 17.8596C128.834 18.9985 129.162 20.2919 129.162 21.7397ZM126.359 21.1895C126.359 20.1857 126.131 19.3267 125.673 18.6124C125.216 17.8789 124.59 17.3287 123.795 16.9619C123.02 16.5758 122.155 16.3828 121.201 16.3828C119.83 16.3828 118.657 16.8075 117.683 17.6569C116.729 18.5063 116.182 19.6838 116.043 21.1895H126.359Z" fill="#225F49"/>
<path d="M134.144 11.8367C133.627 11.8367 133.19 11.6629 132.832 11.3155C132.475 10.968 132.296 10.5433 132.296 10.0414C132.296 9.53947 132.475 9.11478 132.832 8.76731C133.19 8.41983 133.627 8.24609 134.144 8.24609C134.641 8.24609 135.059 8.41983 135.396 8.76731C135.754 9.11478 135.933 9.53947 135.933 10.0414C135.933 10.5433 135.754 10.968 135.396 11.3155C135.059 11.6629 134.641 11.8367 134.144 11.8367ZM135.456 14.4138V30.2818H132.743V14.4138H135.456Z" fill="#225F49"/>
<path d="M145.864 30.5424C144.612 30.5424 143.489 30.3397 142.495 29.9343C141.501 29.5096 140.716 28.9305 140.14 28.1969C139.563 27.4441 139.245 26.585 139.186 25.6198H141.988C142.068 26.4113 142.445 27.058 143.121 27.5599C143.817 28.0618 144.721 28.3128 145.834 28.3128C146.868 28.3128 147.683 28.0908 148.279 27.6468C148.876 27.2028 149.174 26.643 149.174 25.9673C149.174 25.2724 148.856 24.7608 148.22 24.4326C147.584 24.0852 146.6 23.7473 145.268 23.4192C144.055 23.1103 143.062 22.8014 142.286 22.4926C141.531 22.1644 140.875 21.6914 140.319 21.0737C139.782 20.4367 139.514 19.6066 139.514 18.5835C139.514 17.7727 139.762 17.0295 140.259 16.3538C140.756 15.6782 141.462 15.1473 142.376 14.7612C143.29 14.3559 144.334 14.1532 145.506 14.1532C147.315 14.1532 148.776 14.5972 149.889 15.4852C151.002 16.3731 151.599 17.5893 151.678 19.1336H148.965C148.905 18.3036 148.558 17.6376 147.921 17.1357C147.305 16.6337 146.47 16.3828 145.417 16.3828C144.443 16.3828 143.668 16.5855 143.091 16.9909C142.515 17.3963 142.227 17.9271 142.227 18.5835C142.227 19.1047 142.396 19.539 142.734 19.8865C143.091 20.2147 143.529 20.4849 144.046 20.6973C144.582 20.8903 145.318 21.1123 146.252 21.3633C147.425 21.6721 148.379 21.981 149.114 22.2899C149.849 22.5794 150.476 23.0234 150.992 23.6219C151.529 24.2203 151.807 25.0021 151.827 25.9673C151.827 26.836 151.579 27.6178 151.082 28.3128C150.585 29.0077 149.879 29.5579 148.965 29.9633C148.071 30.3493 147.037 30.5424 145.864 30.5424Z" fill="#225F49"/>
<path d="M175.47 30.5424C173.925 30.5424 172.54 30.2963 171.316 29.804C170.092 29.3118 169.109 28.5833 168.366 27.6186C167.644 26.6538 167.262 25.4921 167.222 24.1336H172.701C172.781 24.9015 173.052 25.4921 173.514 25.9056C173.975 26.2994 174.577 26.4963 175.32 26.4963C176.082 26.4963 176.684 26.3289 177.126 25.9942C177.567 25.6398 177.788 25.1574 177.788 24.5471C177.788 24.0352 177.608 23.6118 177.246 23.2771C176.905 22.9424 176.474 22.6668 175.952 22.4502C175.45 22.2336 174.728 21.9875 173.785 21.7119C172.42 21.2984 171.306 20.8849 170.443 20.4715C169.58 20.058 168.838 19.4476 168.216 18.6404C167.593 17.8331 167.282 16.7798 167.282 15.4803C167.282 13.5508 167.995 12.0446 169.42 10.9617C170.845 9.85909 172.701 9.3078 174.989 9.3078C177.317 9.3078 179.193 9.85909 180.618 10.9617C182.043 12.0446 182.805 13.5606 182.906 15.5098H177.337C177.297 14.8404 177.046 14.3186 176.584 13.9446C176.123 13.5508 175.531 13.3539 174.808 13.3539C174.186 13.3539 173.684 13.5212 173.303 13.856C172.922 14.171 172.731 14.6337 172.731 15.244C172.731 15.9135 173.052 16.4352 173.694 16.8093C174.336 17.1834 175.34 17.587 176.705 18.0202C178.069 18.473 179.173 18.9062 180.016 19.3196C180.879 19.7331 181.621 20.3336 182.243 21.1212C182.866 21.9087 183.177 22.9227 183.177 24.1631C183.177 25.3445 182.866 26.4175 182.243 27.3823C181.641 28.347 180.758 29.1149 179.594 29.6859C178.43 30.2569 177.056 30.5424 175.47 30.5424Z" fill="#225F49"/>
<path d="M191.492 9.60314V30.3356H186.344V9.60314H191.492Z" fill="#225F49"/>
<path d="M194.349 19.9398C194.349 17.8922 194.801 16.071 195.704 14.4762C196.607 12.8617 197.861 11.6114 199.467 10.7254C201.092 9.81971 202.929 9.36687 204.976 9.36687C207.484 9.36687 209.632 10.0166 211.418 11.3161C213.204 12.6155 214.398 14.3876 215 16.6321H209.341C208.919 15.7658 208.317 15.1062 207.534 14.6534C206.772 14.2005 205.899 13.9741 204.916 13.9741C203.33 13.9741 202.046 14.5155 201.062 15.5984C200.079 16.6813 199.587 18.1285 199.587 19.9398C199.587 21.7512 200.079 23.1984 201.062 24.2813C202.046 25.3642 203.33 25.9056 204.916 25.9056C205.899 25.9056 206.772 25.6792 207.534 25.2263C208.317 24.7735 208.919 24.1139 209.341 23.2476H215C214.398 25.4921 213.204 27.2642 211.418 28.5636C209.632 29.8434 207.484 30.4833 204.976 30.4833C202.929 30.4833 201.092 30.0403 199.467 29.1543C197.861 28.2486 196.607 26.9984 195.704 25.4035C194.801 23.8087 194.349 21.9875 194.349 19.9398Z" fill="#225F49"/>
<path fill-rule="evenodd" clip-rule="evenodd" d="M14.7111 7.59018C15.493 8.20412 15.9426 9.11961 15.9426 10.1019C15.9426 18.0199 16.2098 20.1507 17.3023 20.9614C18.0191 21.4905 19.0014 21.4851 22.3113 21.393C23.8498 21.3479 25.8198 21.2901 28.4001 21.2901C29.4294 21.2901 30.3991 21.7307 31.0563 22.4981C31.6667 23.2113 31.9339 24.1431 31.7931 25.0604C30.5869 32.8701 23.9419 38.5418 15.9931 38.5418C7.17407 38.5418 0 31.3677 0 22.5505C0 15.5588 5.28711 8.56707 11.7858 6.96721C12.8007 6.71983 13.8913 6.95096 14.7111 7.59018ZM12.6074 9.57646C12.5497 9.57646 12.4919 9.58368 12.4341 9.59812C7.07115 10.9181 2.70856 16.7289 2.70856 22.5505C2.70856 29.8744 8.66739 35.8332 15.9931 35.8332C22.5966 35.8332 28.1148 31.1294 29.1152 24.6469C29.1224 24.5927 29.1477 24.4356 28.9996 24.2605C28.8588 24.0961 28.6349 23.9986 28.4001 23.9986C25.8523 23.9986 23.9075 24.0564 22.389 24.0998C18.7125 24.2099 17.1921 24.2514 15.6898 23.1373C13.5415 21.5458 13.2591 18.8703 13.2358 11.3624L13.234 10.1019C13.234 9.95024 13.169 9.82384 13.039 9.72272C12.918 9.62702 12.7645 9.57646 12.6074 9.57646ZM32.5937 4.93633C35.7682 8.10896 37.7833 12.2783 37.7255 15.5593C37.7039 16.8396 36.7739 17.9085 35.5172 18.0981C33.065 18.4683 30.1939 18.5802 27.6533 18.5802C25.2878 18.5802 23.2059 18.4845 22.0087 18.4159C20.5027 18.3275 19.3037 17.1267 19.217 15.6207C19.0762 13.2336 18.771 7.16819 18.9877 2.47696C19.0473 1.11365 20.1488 0.0284246 21.4958 0.00495045C25.3546 -0.107003 29.3362 1.68426 32.5937 4.93633ZM21.727 2.7117H21.6873C21.4886 7.26028 21.783 13.136 21.9202 15.4636C21.9274 15.6026 22.0285 15.7038 22.1658 15.711C24.022 15.8175 30.4178 16.1137 35.017 15.4365C35.0278 12.9013 33.2925 9.46324 30.6797 6.85219C28 4.17613 24.8292 2.7117 21.727 2.7117Z" fill="#F3BE00"/>
</svg>
