<svg width="auto" height="auto" viewBox="0 0 431 217" fill="none" xmlns="http://www.w3.org/2000/svg">
<path d="M25.224 172.464C25.224 173.936 24.968 175.259 24.456 176.432C23.9227 177.584 23.1973 178.491 22.28 179.152C21.3413 179.813 20.264 180.155 19.048 180.176L19.048 177.072C20.0933 176.965 20.9787 176.539 21.704 175.792C22.408 175.024 22.76 173.915 22.76 172.464C22.76 171.077 22.4187 169.989 21.736 169.2C21.032 168.389 20.136 167.984 19.048 167.984C18.1947 167.984 17.5013 168.219 16.968 168.688C16.4347 169.157 16.0293 169.744 15.752 170.448C15.4747 171.152 15.176 172.101 14.856 173.296C14.472 174.768 14.088 175.952 13.704 176.848C13.32 177.723 12.7227 178.48 11.912 179.12C11.08 179.739 9.97068 180.048 8.58401 180.048C7.36801 180.048 6.29068 179.739 5.35201 179.12C4.41334 178.501 3.68801 177.637 3.17601 176.528C2.66401 175.397 2.40801 174.107 2.40801 172.656C2.40801 170.565 2.93068 168.859 3.97601 167.536C5.02134 166.192 6.40801 165.435 8.13601 165.264L8.13601 168.464C7.28268 168.571 6.53601 169.019 5.89601 169.808C5.23468 170.597 4.90401 171.643 4.90401 172.944C4.90401 174.16 5.22401 175.152 5.86401 175.92C6.48268 176.688 7.35734 177.072 8.48801 177.072C9.29868 177.072 9.96001 176.848 10.472 176.4C10.984 175.931 11.3787 175.365 11.656 174.704C11.912 174.021 12.2107 173.072 12.552 171.856C12.9573 170.384 13.3627 169.2 13.768 168.304C14.152 167.408 14.76 166.64 15.592 166C16.4027 165.36 17.512 165.04 18.92 165.04C20.008 165.04 21.032 165.328 21.992 165.904C22.952 166.48 23.7307 167.333 24.328 168.464C24.9253 169.595 25.224 170.928 25.224 172.464Z" fill="white"/>
<path d="M4.61601 156.051C4.61601 156.605 4.42401 157.075 4.04001 157.459C3.65601 157.843 3.18668 158.035 2.63201 158.035C2.07734 158.035 1.60801 157.843 1.22401 157.459C0.840011 157.075 0.648011 156.605 0.648011 156.051C0.648011 155.517 0.840011 155.069 1.22401 154.707C1.60801 154.323 2.07734 154.131 2.63201 154.131C3.18668 154.131 3.65601 154.323 4.04001 154.707C4.42401 155.069 4.61601 155.517 4.61601 156.051ZM7.46401 154.643L25 154.643L25 157.555L7.46401 157.555L7.46401 154.643Z" fill="white"/>
<path d="M25.288 140.272C25.288 141.616 25.064 142.821 24.616 143.888C24.1467 144.954 23.5067 145.797 22.696 146.416C21.864 147.034 20.9147 147.376 19.848 147.44L19.848 144.432C20.7227 144.346 21.4373 143.941 21.992 143.216C22.5467 142.469 22.824 141.498 22.824 140.304C22.824 139.194 22.5787 138.32 22.088 137.68C21.5973 137.04 20.9787 136.72 20.232 136.72C19.464 136.72 18.8987 137.061 18.536 137.744C18.152 138.426 17.7787 139.482 17.416 140.912C17.0747 142.213 16.7333 143.28 16.392 144.112C16.0293 144.922 15.5067 145.626 14.824 146.224C14.12 146.8 13.2027 147.088 12.072 147.088C11.176 147.088 10.3547 146.821 9.60801 146.288C8.86134 145.754 8.27468 144.997 7.84801 144.016C7.40001 143.034 7.17601 141.914 7.17601 140.656C7.17601 138.714 7.66668 137.146 8.64801 135.952C9.62934 134.757 10.9733 134.117 12.68 134.032L12.68 136.944C11.7627 137.008 11.0267 137.381 10.472 138.064C9.91735 138.725 9.64001 139.621 9.64001 140.752C9.64001 141.797 9.86401 142.629 10.312 143.248C10.76 143.866 11.3467 144.176 12.072 144.176C12.648 144.176 13.128 143.994 13.512 143.632C13.8747 143.248 14.1733 142.778 14.408 142.224C14.6213 141.648 14.8667 140.858 15.144 139.856C15.4853 138.597 15.8267 137.573 16.168 136.784C16.488 135.994 16.9787 135.322 17.64 134.768C18.3013 134.192 19.1653 133.893 20.232 133.872C21.192 133.872 22.056 134.138 22.824 134.672C23.592 135.205 24.2 135.962 24.648 136.944C25.0747 137.904 25.288 139.013 25.288 140.272Z" fill="white"/>
<path d="M9.86401 123.009L20.2 123.009C21.0533 123.009 21.6613 122.828 22.024 122.465C22.3653 122.102 22.536 121.473 22.536 120.577L22.536 118.433L25 118.433L25 121.057C25 122.678 24.6267 123.894 23.88 124.705C23.1333 125.516 21.9067 125.921 20.2 125.921L9.86401 125.921L9.86401 128.193L7.46401 128.193L7.46401 125.921L3.04801 125.921L3.04801 123.009L7.46401 123.009L7.46401 118.433L9.86401 118.433L9.86401 123.009Z" fill="white"/>
<path d="M15.56 95.7047C16.1147 95.7047 16.7013 95.7367 17.32 95.8007L17.32 109.817C19.048 109.71 20.4027 109.123 21.384 108.057C22.344 106.969 22.824 105.657 22.824 104.121C22.824 102.862 22.536 101.817 21.96 100.985C21.3627 100.131 20.5733 99.5341 19.592 99.1927L19.592 96.0567C21.2773 96.5261 22.6533 97.4647 23.72 98.8727C24.7653 100.281 25.288 102.03 25.288 104.121C25.288 105.785 24.9147 107.278 24.168 108.601C23.4213 109.902 22.3653 110.926 21 111.673C19.6133 112.419 18.0133 112.793 16.2 112.793C14.3867 112.793 12.7973 112.43 11.432 111.705C10.0667 110.979 9.02134 109.966 8.29601 108.665C7.54934 107.342 7.17601 105.827 7.17601 104.121C7.17601 102.457 7.53868 100.985 8.26401 99.7047C8.98935 98.4247 9.99201 97.4434 11.272 96.7607C12.5307 96.0567 13.96 95.7047 15.56 95.7047ZM14.952 98.7127C13.8427 98.7127 12.8933 98.9581 12.104 99.4487C11.2933 99.9394 10.6853 100.611 10.28 101.465C9.85334 102.297 9.64001 103.225 9.64001 104.249C9.64001 105.721 10.1093 106.979 11.048 108.025C11.9867 109.049 13.288 109.635 14.952 109.785L14.952 98.7127Z" fill="white"/>
<path d="M7.14401 67.573C7.14401 66.2077 7.43201 64.9917 8.00801 63.925C8.56268 62.8583 9.40535 62.0157 10.536 61.397C11.6667 60.7783 13.0427 60.469 14.664 60.469L25 60.469L25 63.349L15.08 63.349C13.3307 63.349 11.9973 63.7863 11.08 64.661C10.1413 65.5143 9.67201 66.677 9.67201 68.149C9.67201 69.6637 10.1627 70.869 11.144 71.765C12.104 72.661 13.5013 73.109 15.336 73.109L25 73.109L25 75.989L15.08 75.989C13.3307 75.989 11.9973 76.4263 11.08 77.301C10.1413 78.1543 9.67201 79.317 9.67201 80.789C9.67201 82.3037 10.1627 83.509 11.144 84.405C12.104 85.301 13.5013 85.749 15.336 85.749L25 85.749L25 88.661L7.46401 88.661L7.46401 85.749L9.99201 85.749C9.07468 85.173 8.37068 84.405 7.88001 83.445C7.38935 82.4637 7.14401 81.3863 7.14401 80.213C7.14401 78.741 7.47468 77.4397 8.13601 76.309C8.79735 75.1783 9.76801 74.3357 11.048 73.781C9.81068 73.2903 8.85068 72.4797 8.16801 71.349C7.48535 70.2183 7.14401 68.9597 7.14401 67.573Z" fill="white"/>
<path d="M16.168 53.5802C14.376 53.5802 12.808 53.2176 11.464 52.4922C10.0987 51.7669 9.04268 50.7749 8.29601 49.5163C7.54935 48.2363 7.17601 46.8176 7.17601 45.2603C7.17601 43.7243 7.50668 42.3909 8.16801 41.2603C8.82935 40.1296 9.66135 39.2869 10.664 38.7323L7.46401 38.7323L7.46401 35.7883L25 35.7883L25 38.7323L21.736 38.7323C22.76 39.3083 23.6133 40.1722 24.296 41.3242C24.9573 42.4549 25.288 43.7776 25.288 45.2923C25.288 46.8496 24.904 48.2576 24.136 49.5163C23.368 50.7749 22.2907 51.7669 20.904 52.4922C19.5173 53.2176 17.9387 53.5802 16.168 53.5802ZM16.2 38.7323C14.8773 38.7323 13.7253 38.9989 12.744 39.5323C11.7627 40.0656 11.016 40.7909 10.504 41.7083C9.97068 42.6043 9.70401 43.5963 9.70401 44.6842C9.70401 45.7722 9.96001 46.7642 10.472 47.6602C10.984 48.5562 11.7307 49.2709 12.712 49.8043C13.6933 50.3376 14.8453 50.6042 16.168 50.6042C17.512 50.6042 18.6853 50.3376 19.688 49.8043C20.6693 49.2709 21.4267 48.5562 21.96 47.6602C22.472 46.7642 22.728 45.7723 22.728 44.6843C22.728 43.5963 22.472 42.6043 21.96 41.7083C21.4267 40.7909 20.6693 40.0656 19.688 39.5323C18.6853 38.9989 17.5227 38.7323 16.2 38.7323Z" fill="white"/>
<path d="M137.3 37.7C137.3 43.5 135.3 48.3333 131.3 52.2C127.367 56 121.333 57.9 113.2 57.9H99.8V87H90.7V17.3H113.2C121.067 17.3 127.033 19.2 131.1 23C135.233 26.8 137.3 31.7 137.3 37.7ZM113.2 50.4C118.267 50.4 122 49.3 124.4 47.1C126.8 44.9 128 41.7667 128 37.7C128 29.1 123.067 24.8 113.2 24.8H99.8V50.4H113.2Z" fill="white"/>
<path d="M145.21 59.4C145.21 53.8 146.343 48.9 148.61 44.7C150.877 40.4333 153.977 37.1333 157.91 34.8C161.91 32.4667 166.344 31.3 171.21 31.3C176.01 31.3 180.177 32.3333 183.71 34.4C187.244 36.4667 189.877 39.0667 191.61 42.2V32.2H200.81V87H191.61V76.8C189.81 80 187.11 82.6667 183.51 84.8C179.977 86.8667 175.844 87.9 171.11 87.9C166.244 87.9 161.844 86.7 157.91 84.3C153.977 81.9 150.877 78.5333 148.61 74.2C146.343 69.8667 145.21 64.9333 145.21 59.4ZM191.61 59.5C191.61 55.3667 190.777 51.7667 189.11 48.7C187.444 45.6333 185.177 43.3 182.31 41.7C179.51 40.0333 176.41 39.2 173.01 39.2C169.61 39.2 166.51 40 163.71 41.6C160.91 43.2 158.677 45.5333 157.01 48.6C155.343 51.6667 154.51 55.2667 154.51 59.4C154.51 63.6 155.343 67.2667 157.01 70.4C158.677 73.4667 160.91 75.8333 163.71 77.5C166.51 79.1 169.61 79.9 173.01 79.9C176.41 79.9 179.51 79.1 182.31 77.5C185.177 75.8333 187.444 73.4667 189.11 70.4C190.777 67.2667 191.61 63.6333 191.61 59.5Z" fill="white"/>
<path d="M220.888 23.3C219.155 23.3 217.688 22.7 216.488 21.5C215.288 20.3 214.688 18.8333 214.688 17.1C214.688 15.3667 215.288 13.9 216.488 12.7C217.688 11.5 219.155 10.9 220.888 10.9C222.555 10.9 223.955 11.5 225.088 12.7C226.288 13.9 226.888 15.3667 226.888 17.1C226.888 18.8333 226.288 20.3 225.088 21.5C223.955 22.7 222.555 23.3 220.888 23.3ZM225.288 32.2V87H216.188V32.2H225.288Z" fill="white"/>
<path d="M267.498 31.2C274.164 31.2 279.564 33.2333 283.698 37.3C287.831 41.3 289.898 47.1 289.898 54.7V87H280.898V56C280.898 50.5333 279.531 46.3667 276.798 43.5C274.064 40.5667 270.331 39.1 265.598 39.1C260.798 39.1 256.964 40.6 254.098 43.6C251.298 46.6 249.898 50.9667 249.898 56.7V87H240.798V32.2H249.898V40C251.698 37.2 254.131 35.0333 257.198 33.5C260.331 31.9667 263.764 31.2 267.498 31.2Z" fill="white"/>
<path d="M354.763 57.5C354.763 59.2333 354.662 61.0667 354.462 63H310.663C310.996 68.4 312.829 72.6333 316.163 75.7C319.563 78.7 323.663 80.2 328.463 80.2C332.396 80.2 335.663 79.3 338.263 77.5C340.929 75.6333 342.796 73.1667 343.863 70.1H353.663C352.196 75.3667 349.263 79.6667 344.863 83C340.463 86.2667 334.996 87.9 328.463 87.9C323.263 87.9 318.596 86.7333 314.463 84.4C310.396 82.0667 307.196 78.7667 304.863 74.5C302.529 70.1667 301.363 65.1667 301.363 59.5C301.363 53.8333 302.496 48.8667 304.763 44.6C307.029 40.3333 310.196 37.0667 314.263 34.8C318.396 32.4667 323.129 31.3 328.463 31.3C333.663 31.3 338.263 32.4333 342.263 34.7C346.263 36.9667 349.329 40.1 351.462 44.1C353.662 48.0333 354.763 52.5 354.763 57.5ZM345.363 55.6C345.363 52.1333 344.596 49.1667 343.063 46.7C341.529 44.1667 339.429 42.2667 336.763 41C334.163 39.6667 331.263 39 328.063 39C323.463 39 319.529 40.4667 316.263 43.4C313.063 46.3333 311.229 50.4 310.763 55.6H345.363Z" fill="white"/>
<path d="M371.474 23.3C369.741 23.3 368.274 22.7 367.074 21.5C365.874 20.3 365.274 18.8333 365.274 17.1C365.274 15.3667 365.874 13.9 367.074 12.7C368.274 11.5 369.741 10.9 371.474 10.9C373.141 10.9 374.541 11.5 375.674 12.7C376.874 13.9 377.474 15.3667 377.474 17.1C377.474 18.8333 376.874 20.3 375.674 21.5C374.541 22.7 373.141 23.3 371.474 23.3ZM375.874 32.2V87H366.774V32.2H375.874Z" fill="white"/>
<path d="M410.784 87.9C406.584 87.9 402.817 87.2 399.484 85.8C396.15 84.3333 393.517 82.3333 391.584 79.8C389.65 77.2 388.584 74.2333 388.384 70.9H397.784C398.05 73.6333 399.317 75.8667 401.584 77.6C403.917 79.3333 406.95 80.2 410.684 80.2C414.15 80.2 416.884 79.4333 418.884 77.9C420.884 76.3667 421.884 74.4333 421.884 72.1C421.884 69.7 420.817 67.9333 418.684 66.8C416.55 65.6 413.25 64.4333 408.784 63.3C404.717 62.2333 401.384 61.1667 398.784 60.1C396.25 58.9667 394.05 57.3333 392.184 55.2C390.384 53 389.484 50.1333 389.484 46.6C389.484 43.8 390.317 41.2333 391.984 38.9C393.65 36.5667 396.017 34.7333 399.084 33.4C402.15 32 405.65 31.3 409.584 31.3C415.65 31.3 420.55 32.8333 424.284 35.9C428.017 38.9667 430.017 43.1667 430.284 48.5H421.184C420.984 45.6333 419.817 43.3333 417.684 41.6C415.617 39.8667 412.817 39 409.284 39C406.017 39 403.417 39.7 401.484 41.1C399.55 42.5 398.584 44.3333 398.584 46.6C398.584 48.4 399.15 49.9 400.284 51.1C401.484 52.2333 402.95 53.1667 404.684 53.9C406.484 54.5667 408.95 55.3333 412.084 56.2C416.017 57.2667 419.217 58.3333 421.684 59.4C424.15 60.4 426.25 61.9333 427.984 64C429.784 66.0667 430.717 68.7667 430.784 72.1C430.784 75.1 429.95 77.8 428.284 80.2C426.617 82.6 424.25 84.5 421.184 85.9C418.184 87.2333 414.717 87.9 410.784 87.9Z" fill="white"/>
<path d="M114.6 197.7C109.467 197.7 104.867 196.867 100.8 195.2C96.7333 193.533 93.4667 191.067 91 187.8C88.6 184.533 87.3333 180.6 87.2 176H105.4C105.667 178.6 106.567 180.6 108.1 182C109.633 183.333 111.633 184 114.1 184C116.633 184 118.633 183.433 120.1 182.3C121.567 181.1 122.3 179.467 122.3 177.4C122.3 175.667 121.7 174.233 120.5 173.1C119.367 171.967 117.933 171.033 116.2 170.3C114.533 169.567 112.133 168.733 109 167.8C104.467 166.4 100.767 165 97.9 163.6C95.0333 162.2 92.5667 160.133 90.5 157.4C88.4333 154.667 87.4 151.1 87.4 146.7C87.4 140.167 89.7667 135.067 94.5 131.4C99.2333 127.667 105.4 125.8 113 125.8C120.733 125.8 126.967 127.667 131.7 131.4C136.433 135.067 138.967 140.2 139.3 146.8H120.8C120.667 144.533 119.833 142.767 118.3 141.5C116.767 140.167 114.8 139.5 112.4 139.5C110.333 139.5 108.667 140.067 107.4 141.2C106.133 142.267 105.5 143.833 105.5 145.9C105.5 148.167 106.567 149.933 108.7 151.2C110.833 152.467 114.167 153.833 118.7 155.3C123.233 156.833 126.9 158.3 129.7 159.7C132.567 161.1 135.033 163.133 137.1 165.8C139.167 168.467 140.2 171.9 140.2 176.1C140.2 180.1 139.167 183.733 137.1 187C135.1 190.267 132.167 192.867 128.3 194.8C124.433 196.733 119.867 197.7 114.6 197.7Z" fill="white"/>
<path d="M167.823 126.8V197H150.723V126.8H167.823Z" fill="white"/>
<path d="M177.316 161.8C177.316 154.867 178.816 148.7 181.816 143.3C184.816 137.833 188.982 133.6 194.316 130.6C199.716 127.533 205.816 126 212.616 126C220.949 126 228.082 128.2 234.016 132.6C239.949 137 243.916 143 245.916 150.6H227.116C225.716 147.667 223.716 145.433 221.116 143.9C218.582 142.367 215.682 141.6 212.416 141.6C207.149 141.6 202.882 143.433 199.616 147.1C196.349 150.767 194.716 155.667 194.716 161.8C194.716 167.933 196.349 172.833 199.616 176.5C202.882 180.167 207.149 182 212.416 182C215.682 182 218.582 181.233 221.116 179.7C223.716 178.167 225.716 175.933 227.116 173H245.916C243.916 180.6 239.949 186.6 234.016 191C228.082 195.333 220.949 197.5 212.616 197.5C205.816 197.5 199.716 196 194.316 193C188.982 189.933 184.816 185.7 181.816 180.3C178.816 174.9 177.316 168.733 177.316 161.8Z" fill="white"/>
<rect x="50" width="4" height="217" rx="2" fill="#F3BE00"/>
</svg>
